<?xml version="1.0" standalone="no"?>
<!DOCTYPE svg PUBLIC "-//W3C//DTD SVG 20010904//EN"
 "http://www.w3.org/TR/2001/REC-SVG-20010904/DTD/svg10.dtd">
<svg version="1.0" xmlns="http://www.w3.org/2000/svg"
 width="32.000000pt" height="32.000000pt" viewBox="0 0 32.000000 32.000000"
 preserveAspectRatio="xMidYMid meet">

<g transform="translate(0.000000,32.000000) scale(0.100000,-0.100000)"
fill="#000000" stroke="none">
<path d="M122 244 c-16 -11 -22 -25 -22 -53 0 -47 18 -65 42 -40 15 16 15 17
-4 22 -16 5 -18 9 -8 26 6 12 20 21 31 21 17 0 18 3 9 20 -13 24 -19 25 -48 4z"/>
<path d="M210 211 c0 -5 5 -13 10 -16 6 -3 10 -2 10 4 0 5 -4 13 -10 16 -5 3
-10 2 -10 -4z"/>
<path d="M197 148 c-9 -5 -17 -17 -17 -28 0 -10 -3 -20 -7 -23 -5 -2 -3 -2 4
-1 7 2 15 -1 18 -6 9 -15 41 -12 54 4 24 29 -18 73 -52 54z"/>
<path d="M274 94 c3 -8 6 -21 6 -27 0 -7 4 -6 10 3 14 21 12 27 -6 34 -12 5
-15 2 -10 -10z"/>
<path d="M82 56 c-10 -23 -7 -36 9 -36 4 0 14 14 23 30 13 28 13 30 -3 30 -10
0 -23 -11 -29 -24z"/>
<path d="M150 49 c-11 -26 -11 -32 1 -40 24 -15 31 -10 25 15 -3 14 -1 28 4
31 11 7 4 25 -9 25 -5 0 -14 -14 -21 -31z"/>
<path d="M202 35 c0 -17 2 -22 5 -12 2 9 2 23 0 30 -3 6 -5 -1 -5 -18z"/>
<path d="M224 40 c0 -11 3 -20 6 -20 12 0 45 29 33 30 -6 0 -18 2 -25 5 -9 4
-14 -2 -14 -15z"/>
</g>
</svg>
